<?xml version="1.0" encoding="utf-8"?>
<svg id="master-artboard" viewBox="0 0 1400 980" version="1.1" xmlns="http://www.w3.org/2000/svg" x="0px" y="0px" style="enable-background:new 0 0 1400 980;" width="1400px" height="980px" xmlns:xlink="http://www.w3.org/1999/xlink"><defs><linearGradient id="linear-gradient" x1="1" y1="0.5" x2="0" y2="0.5" gradientUnits="objectBoundingBox">
      <stop offset="0" stop-color="#dbc6c9"/>
      <stop offset="1" stop-color="#f3eaeb"/>
    </linearGradient><linearGradient id="linear-gradient-3" x1="1" y1="0.5" x2="0" y2="0.5" gradientUnits="objectBoundingBox">
      <stop offset="0" stop-color="#ceb4b7"/>
      <stop offset="1" stop-color="#dfcdcf"/>
    </linearGradient><linearGradient id="linear-gradient-4" x1="0.5" y1="1" x2="0.5" gradientUnits="objectBoundingBox">
      <stop offset="0" stop-color="#ceb4b7"/>
      <stop offset="1" stop-color="#f3eaeb"/>
    </linearGradient><linearGradient id="linear-gradient-5" x1="1" y1="0.5" x2="0" y2="0.5" gradientUnits="objectBoundingBox">
      <stop offset="0" stop-color="#f3eaeb"/>
      <stop offset="1" stop-color="#c4a5ab"/>
    </linearGradient><linearGradient id="linear-gradient-7" x1="1" y1="0.5" x2="0" y2="0.5" gradientUnits="objectBoundingBox">
      <stop offset="0" stop-color="#c4a5ab"/>
      <stop offset="1" stop-color="#f3eaeb"/>
    </linearGradient><linearGradient id="linear-gradient-12" x1="18.229" y1="-67.042" x2="18.229" y2="-68.153" xlink:href="#linear-gradient-7"/><linearGradient id="linear-gradient-13" x1="1" y1="0.5" x2="0" y2="0.5" xlink:href="#linear-gradient-4"/><linearGradient id="linear-gradient-14" x1="389.576" y1="1" x2="389.576" y2="0" xlink:href="#linear-gradient-4"/><linearGradient id="linear-gradient-15" x1="-0.012" y1="0.5" x2="1.012" y2="0.5" gradientUnits="objectBoundingBox">
      <stop offset="0" stop-color="#f3eaeb"/>
      <stop offset="1" stop-color="#dbc6c9"/>
    </linearGradient><linearGradient id="linear-gradient-16" x1="-0.445" y1="-8.063" x2="0.555" y2="-8.063" xlink:href="#linear-gradient-15"/><linearGradient id="linear-gradient-17" x1="48.853" y1="1" x2="48.853" y2="0" xlink:href="#linear-gradient-4"/><linearGradient id="linear-gradient-18" x1="-215.721" y1="-62.638" x2="-215.721" y2="-61.638" xlink:href="#linear-gradient-7"/><linearGradient id="linear-gradient-19" x1="65.325" y1="0.5" x2="64.325" y2="0.5" xlink:href="#linear-gradient-4"/><radialGradient id="radial-gradient" cx="0.5" cy="0.5" r="0.5" gradientTransform="matrix(0.526, -0.851, -0.851, -0.526, 0.937, 1.68)" gradientUnits="objectBoundingBox">
      <stop offset="0" stop-color="#fe7b67"/>
      <stop offset="1" stop-color="#f9a186"/>
    </radialGradient><radialGradient id="radial-gradient-2" cx="0.5" cy="0.5" r="0.5" gradientTransform="matrix(0.23, -0.973, -0.973, -0.23, 1.37, 1.731)" xlink:href="#radial-gradient"/></defs><g transform="matrix(4.476296747208748, 0, 0, 4.476296747208748, 7.942133903327203, -0.000003327408421682776)"><path id="Path_13932" data-name="Path 13932" d="M408.321,1809.709H651.23a4.8,4.8,0,0,0,4.786-4.785h0a4.8,4.8,0,0,0-4.786-4.786H408.321a4.8,4.8,0,0,0-4.786,4.786h0A4.8,4.8,0,0,0,408.321,1809.709Z" transform="translate(-373.328 -1590.778)" fill="#ebeae7"/><path id="Path_13933" data-name="Path 13933" d="M1937.134,470.834c-12.091-6.872-11.281,8.074-5.363,29.226s-1.353,17.436-8.133,9.252-14.263,1.975-.3,21.485,20.36,25.225,13.573,27.338-24.953-22.624-31.236-14.01,41.846,67.485,63.83,63.415,32.379-52.68,15.034-60.164-13.011,12.743-21.64,5.2,13.853-26.383,1.307-40.047-10.976,7.856-17.776-1S1954.233,480.553,1937.134,470.834Z" transform="translate(-1898.923 -426.745)" fill="#f5f5f5"/><path id="Path_13934" data-name="Path 13934" d="M2070.813,992.318c-9.273,2.964-3.788,12.559,6.723,23.136s5.076,12.64-1.579,11.374-7.554,10.312,7.042,14.714,20.2,4.241,17,9.941-21.972.409-22.7,10.188,46.766,19.29,58.066,2.7.966-56-11.54-50.14-3.217,16.8-10.722,17.133-.877-26.557-12.693-27.9-3.686,12.22-10.577,10.511S2083.927,988.127,2070.813,992.318Z" transform="translate(-2066.081 -883.866)" fill="#e9e9e9"/><path id="Path_13935" data-name="Path 13935" d="M2180.427,1215.239c4.931-6.689,11.191.368,16.872,11.758s8.835,7.558,9.629,1.831,10.4-3.291,9.975,9.714-2.09,17.493,3.395,16.462,6.334-17.656,14.44-15.573,2.821,43.088-13.68,47.693-45.546-14.518-37.394-23.031,14.468,1.99,16.785-3.99-21.235-7.966-19.093-17.887,10.889.358,11.39-5.681S2173.455,1224.7,2180.427,1215.239Z" transform="translate(-2178.502 -1076.978)" fill="#ccc" opacity="0.99"/><path id="Path_13936" data-name="Path 13936" d="M378.518,856.942c-4.357-7.076-11.183-.563-17.791,10.315s-9.432,6.8-9.748,1.024-10.093-4.144-10.748,8.852.628,17.606-4.751,16.123-4.844-18.121-13.1-16.719-6.393,42.7,9.669,48.665,46.595-10.683,39.178-19.843-14.583.781-16.395-5.371,21.824-6.173,20.513-16.238-10.88-.548-10.878-6.608S384.68,866.948,378.518,856.942Z" transform="translate(-86.217 -763.315)" fill="#e9e9e9"/><path id="Path_13937" data-name="Path 13937" d="M566.878,381.436c9.893-1.812,9.565,9.6,5.134,24.357s1.527,13.989,6.975,9.6,11.9,5.721.745,16.837-16.344,13.7-10.652,17.333,20.222-10.322,25.645-1.764-33.23,40.341-51.6,30.723-28.135-50.56-13.888-51.31,11.111,13.749,18.111,10.395-12.126-24.629-2.011-31.6,9.306,9.342,14.755,4.431S552.887,384,566.878,381.436Z" transform="translate(-327.466 -349.874)" fill="#f5f5f5"/><path id="Path_13938" data-name="Path 13938" d="M266.95,1348.566c-1.1-8.237-9.984-5.068-20.449,2.177s-11.383,2.367-9.32-3.034-7.531-7.9-13.421,3.708-6.6,16.336-10.9,12.791,2.954-18.523-5.153-20.6-23.228,36.4-10.985,48.385,46.907,9.217,43.863-2.17-13.638-5.226-12.787-11.581,22.446,3.249,25.348-6.478-9.715-4.931-7.245-10.465S268.5,1360.215,266.95,1348.566Z" transform="translate(42.174 -1191.14)" fill="#f5f5f5"/><g id="Group_59722" data-name="Group 59722" transform="translate(192.666 150.79)">
    <path d="M 0 0 H 83.232002 V 59.164001 H 0 V 0 Z" id="Rectangle_2020" data-name="Rectangle 2020" transform="translate(0)" fill="#4393da"/>
    <path d="M 0 0 H 13.161 V 9.776 H 0 V 0 Z" id="Rectangle_2021" data-name="Rectangle 2021" transform="translate(35.035)"/>
    <path d="M 0 0 H 13.161 V 9.776 H 0 V 0 Z" id="Rectangle_2022" data-name="Rectangle 2022" transform="translate(35.035 49.388)" fill="#df4640"/>
  </g><g id="Group_59723" data-name="Group 59723" transform="translate(207.267 107.104)">
    <path d="M 0 0 H 48.196999 V 43.686001 H 0 V 0 Z" id="Rectangle_2023" data-name="Rectangle 2023" transform="translate(0)" fill="#4393da"/>
    <path d="M 0 0 H 7.621 V 7.219 H 0 V 0 Z" id="Rectangle_2024" data-name="Rectangle 2024" transform="translate(20.288)" fill="#2f2f2f"/>
    <path d="M 0 0 H 7.621 V 7.219 H 0 V 0 Z" id="Rectangle_2025" data-name="Rectangle 2025" transform="translate(20.288 36.467)" fill="#4393da"/>
  </g><path id="Path_13939" data-name="Path 13939" d="M1609.16,198.373h0a46.818,46.818,0,1,1,84.29,0h0L1651.307,279.9Zm42.148-47.962a27.556,27.556,0,1,0,27.555,27.556A27.556,27.556,0,0,0,1651.307,150.411Z" transform="translate(-1566.086 -131.149)" fill="#4393da" opacity="0.3"/><path d="M 10 0 H 91.087997 A 10 10 0 0 1 101.087997 10 V 192.641998 A 10 10 0 0 1 91.087997 202.641998 H 10 A 10 10 0 0 1 0 192.641998 V 10 A 10 10 0 0 1 10 0 Z" id="Rectangle_2026" data-name="Rectangle 2026" transform="translate(123.357 10.628)" fill="#4d4d4d"/><path id="Path_13940" data-name="Path 13940" d="M914.987,252.38h12.026a3.912,3.912,0,0,1,3.912,3.912v3.244a2.52,2.52,0,0,0,2.512,2.512h28.749a2.52,2.52,0,0,0,2.512-2.512v-3.244a3.912,3.912,0,0,1,3.911-3.912H980.4a15.475,15.475,0,0,1,15.429,15.429V434.453A11.265,11.265,0,0,1,984.6,445.685H914.987a11.264,11.264,0,0,1-11.231-11.232V263.611A11.264,11.264,0,0,1,914.987,252.38Z" transform="translate(-775.894 -237.173)" fill="#fff"/><g id="Group_59725" data-name="Group 59725" transform="translate(130.37 17.716)">
    <path id="Path_13941" data-name="Path 13941" d="M924.348,310.414l-.592-38.034h2.521A12.966,12.966,0,0,1,939.2,285.3v25.113Z" transform="translate(-852.137 -272.38)" fill="#ececec"/>
    <path id="Path_13942" data-name="Path 13942" d="M924.451,632.166l-.695-44.651h14.826v37.332Z" transform="translate(-851.522 -547.984)" fill="#f5f5f5"/>
    <path id="Path_13943" data-name="Path 13943" d="M1353.251,946.254V933.976l.747-30.512h32.436l-1.9,26.587Z" transform="translate(-1353.251 -824.3)" fill="#ececec"/>
    <path id="Path_13944" data-name="Path 13944" d="M1401.6,1146.105l-2.405,33.664h-28.6v-17.6Z" transform="translate(-1370.586 -1036.504)" fill="#f5f5f5"/>
    <path id="Path_13945" data-name="Path 13945" d="M1330.285,433.143V393.684l36.065,23.223Z" transform="translate(-1330.285 -378.468)" fill="#f5f5f5"/>
    <path id="Path_13946" data-name="Path 13946" d="M1390.223,1439.353v-10.634h28.546v19.251Z" transform="translate(-1390.223 -1283.666)" fill="#f5f5f5"/>
    <path id="Path_13947" data-name="Path 13947" d="M946.914,1716.918a8.721,8.721,0,0,1-7.3,3.959h-4.528v-7.53Z" transform="translate(-861.274 -1532.591)" fill="#f5f5f5"/>
    <path id="Path_13948" data-name="Path 13948" d="M1418.769,1544.355v21.193h-19.823a8.732,8.732,0,0,1-8.723-8.722v-21.087Z" transform="translate(-1390.223 -1377.261)" fill="#f5f5f5"/>
    <path id="Path_13949" data-name="Path 13949" d="M1063.4,289.08l.553-7.032h14.527a5.027,5.027,0,0,0,5.021-5.021v-3.244a1.4,1.4,0,0,1,1.4-1.4h6.959l.238,16.7Z" transform="translate(-1022.554 -272.38)" fill="#f5f5f5"/>
    <path id="Path_13950" data-name="Path 13950" d="M1062.531,417.676h28.843l.282,19.808h-30.682Z" transform="translate(-1021.808 -399.45)" fill="#f5f5f5"/>
    <path id="Path_13951" data-name="Path 13951" d="M1288.615,1428.718v23.543l-11.758-3.549v-19.994Z" transform="translate(-1245.847 -1283.666)" fill="#f5f5f5"/>
    <path id="Path_13952" data-name="Path 13952" d="M1209.806,1079.419l.59-7.506,17.53-9.079v16.586Z" transform="translate(-1176.748 -963.678)" fill="#f5f5f5"/>
    <path id="Path_13953" data-name="Path 13953" d="M1230.09,1207.222v26h-20.284l2.044-26Z" transform="translate(-1178.911 -1089.954)" fill="#f5f5f5"/>
    <g id="Group_59724" data-name="Group 59724" transform="translate(0)">
      <path id="Path_13954" data-name="Path 13954" d="M1299.663,272.38h3.394a1.4,1.4,0,0,1,1.4,1.4v3.244a5.027,5.027,0,0,0,5.021,5.021h12.733l-2.373,27.937-20.177-12.993Z" transform="translate(-1282.308 -272.38)" fill="#f5f5f5"/>
      <path id="Path_13955" data-name="Path 13955" d="M1500.327,272.38h7.106v23.629L1491.6,285.816V281.1A8.733,8.733,0,0,1,1500.327,272.38Z" transform="translate(-1491.604 -272.38)" fill="#f5f5f5"/>
    </g>
    <path id="Path_13956" data-name="Path 13956" d="M1049.026,1670.994l15.138,4.57v8.274h-15.138Z" transform="translate(-992.817 -1495.55)" fill="#f5f5f5"/>
    <path id="Path_13957" data-name="Path 13957" d="M1205.543,1617.5v13.3h-23.673v-20.45Z" transform="translate(-1150.861 -1442.519)" fill="#f5f5f5"/>
    <path d="M 0 0 H 27.052999 V 12.671 H 0 V 0 Z" id="Rectangle_2027" data-name="Rectangle 2027" transform="translate(44.294 145.052)" fill="#f5f5f5"/>
    <path d="M 0 0 H 13.251 V 12.671 H 0 V 0 Z" id="Rectangle_2028" data-name="Rectangle 2028" transform="translate(73.81 145.052)" fill="#ececec"/>
    <path id="Path_13958" data-name="Path 13958" d="M1076.079,1541.9v17.973l-27.053-8.166V1541.9Z" transform="translate(-1004.732 -1382.648)" fill="#f5f5f5"/>
    <path id="Path_13959" data-name="Path 13959" d="M937.007,1541.9v20.314a8.7,8.7,0,0,1-.312,2.308l-12.939-3.906V1541.9Z" transform="translate(-849.946 -1382.648)" fill="#ececec"/>
    <path id="Path_13960" data-name="Path 13960" d="M1067.275,1311.687l.184,12.893h-18.433v-12.893Z" transform="translate(-996.112 -1181.315)" fill="#f5f5f5"/>
    <path id="Path_13961" data-name="Path 13961" d="M923.756,932.367l20.072-10.4,14.074-7.289v62.694H944.691l-.209-14.42H923.756Z" transform="translate(-870.842 -834.111)" fill="#f5f5f5"/>
    <path id="Path_13962" data-name="Path 13962" d="M1484,652.465v28.39h-19.19V661.1Z" transform="translate(-1464.81 -604.787)" fill="#f5f5f5"/>
    <path id="Path_13963" data-name="Path 13963" d="M1319.861,594.709l16.656-7.5-3.107,36.575h-13.549Z" transform="translate(-1299.145 -547.718)" fill="#f5f5f5"/>
    <path id="Path_13964" data-name="Path 13964" d="M1059.009,609.077l1.612-20.5,30.9-1.06.225,21.562Z" transform="translate(-1021.656 -547.984)" fill="#ececec"/>
    <path id="Path_13965" data-name="Path 13965" d="M1093.135,771.576l.239,22.9-36.4,18.851,3.282-41.75Z" transform="translate(-1023.024 -708.957)" fill="#ececec"/>
  </g><g id="Group_59737" data-name="Group 59737" transform="translate(28.006 35.942)">
    <path id="Path_13966" data-name="Path 13966" d="M2281.687,993.729s-.509-1.18-1.171-.932-1.044.363-1.515,0-2.151-.415-2.66.476-1.171-.724-1.629-.476-1.273,1.368-1.782,1.317-1.591-.613-2.806,4.046c-.655,2.368,1.737,4.558,2.3,4.506s.7-.509,1.01-.2a3.109,3.109,0,0,0,1.841.815c.611-.051,1.273-1.3,1.375-1.288s.611,1.128,1.273,1.055,1.477-1.07,1.629-1.055,2.062,1.542,3.7-1.054C2283.252,1000.936,2284.13,997.875,2281.687,993.729Z" transform="translate(-2262.856 -920.438)" fill="#f9a186" style="fill: rgb(152, 90, 74);"/>
    <g id="Group_59726" data-name="Group 59726" transform="translate(8.336 76.544)">
      <path id="Path_13967" data-name="Path 13967" d="M2345.906,1028.4c.229-.75,1.26-.815.84.61-.372,1.262,1.418,4.064,1.834,4.691a2.913,2.913,0,0,1-.458-.343c-.16-.156-.274-.113-.422-.027C2346.723,1031.747,2345.726,1028.987,2345.906,1028.4Z" transform="translate(-2345.885 -1027.873)" fill="#ee8c74" opacity="0.5"/>
      <path id="Path_13968" data-name="Path 13968" d="M2320.278,1028.4c.229-.75,1.26-.815.84.61-.41,1.39,1.826,4.325,1.938,4.471-.239-.281-.4-.588-.457-.6s-.216.26-.444.552C2321.04,1032.067,2320.068,1029.084,2320.278,1028.4Z" transform="translate(-2317.145 -1027.873)" fill="#ee8c74" opacity="0.5"/>
      <path id="Path_13969" data-name="Path 13969" d="M2301.163,1032.881c-.05-.005-.174.1-.338.246-1.089-1.353-1.981-4.048-1.772-4.731.229-.75,1.259-.815.84.61-.393,1.333,1.27,3.683,1.489,3.984A1.465,1.465,0,0,0,2301.163,1032.881Z" transform="translate(-2292.807 -1027.873)" fill="#ee8c74" opacity="0.5"/>
    </g>
    <path id="Path_13970" data-name="Path 13970" d="M2211.115,994.514a59.415,59.415,0,0,1-9.494.932,10.976,10.976,0,0,1,1.565,7.207h8.733Z" transform="translate(-2182.791 -922.155)" fill="#ee8c74" style="fill: rgb(152, 90, 74);"/>
    <g id="Group_59734" data-name="Group 59734" transform="translate(0 44.422)">
      <g id="Group_59727" data-name="Group 59727" transform="translate(84.952 20.09)">
        <path id="Path_13971" data-name="Path 13971" d="M1452.68,1010.554v33.3a6.625,6.625,0,0,1-6.606,6.605h-29.945a6.625,6.625,0,0,1-6.605-6.605v-33.3Z" transform="translate(-1409.141 -1000.695)" fill="#4393da"/>
        <path id="Path_13972" data-name="Path 13972" d="M1527.5,1010.554v33.3a6.625,6.625,0,0,1-6.605,6.605h-19.213a6.625,6.625,0,0,1-6.605-6.605v-33.3Z" transform="translate(-1494.697 -1000.695)" fill="#0f0f0f"/>
        <path id="Path_13973" data-name="Path 13973" d="M1413.2,931.961h30.475a6.684,6.684,0,0,1,6.722,6.606v3.253h-43.92v-3.253A6.684,6.684,0,0,1,1413.2,931.961Z" transform="translate(-1406.479 -931.961)" fill="#0f0f0f"/>
        <path id="Path_13974" data-name="Path 13974" d="M1500.271,931.961h19.553a6.685,6.685,0,0,1,6.723,6.606v3.253h-33v-3.253A6.684,6.684,0,0,1,1500.271,931.961Z" transform="translate(-1493.549 -931.961)" fill="#0f0f0f"/>
        <path d="M 0 0 H 43.157001 V 1.022 H 0 V 0 Z" id="Rectangle_2029" data-name="Rectangle 2029" transform="translate(0.382 9.859)" fill="#4393da"/>
      </g>
      <path id="Path_13975" data-name="Path 13975" d="M1424.133,1354.061c1.809-11.426,2.834-19.435,3.234-25.377h57.939s12.258,3.527,11.576,26.412a4.532,4.532,0,0,1-4.527,4.4h-34.936s-6.329-5.435-14.576-5.435Z" transform="translate(-1370.251 -1258.827)" fill="#4393da"/>
      <path id="Path_13976" data-name="Path 13976" d="M1653.03,1238.232s19.3-1.039,28.921,0,11,1.449,12.066,10.942h-40.829Z" transform="translate(-1596.073 -1179.318)" fill="#373131"/>
      <g id="Group_59728" data-name="Group 59728" transform="translate(2.202 92.234)">
        <path id="Path_13977" data-name="Path 13977" d="M2135.327,1528.54c0,11.354,5.422,20.558,17.019,20.558s18.224-9.2,18.224-20.558-7.89-21.462-17.621-21.462C2141.954,1507.078,2135.327,1517.186,2135.327,1528.54Z" transform="translate(-2135.327 -1507.078)" fill="#3a3434"/>
        <path d="M 18.826 13.781 A 9.413 13.781 0 0 1 9.413 27.562 A 9.413 13.781 0 0 1 0 13.781 A 9.413 13.781 0 0 1 9.413 0 A 9.413 13.781 0 0 1 18.826 13.781 Z" id="Ellipse_1189" data-name="Ellipse 1189" transform="translate(11.748 7.229)" fill="#f6f0f0"/>
        <path d="M 17.32 13.178 A 8.66 13.178 0 0 1 8.66 26.356001 A 8.66 13.178 0 0 1 0 13.178 A 8.66 13.178 0 0 1 8.66 0 A 8.66 13.178 0 0 1 17.32 13.178 Z" id="Ellipse_1190" data-name="Ellipse 1190" transform="translate(12.501 7.832)" fill="#ceb4b7"/>
        <path id="Path_13978" data-name="Path 13978" d="M2187.322,1586.889c0-5.8-2.351-10.727-5.616-12.487a5.512,5.512,0,0,1,.967-.089c4.564,0,8.264,5.63,8.264,12.576s-3.7,12.576-8.264,12.576a5.512,5.512,0,0,1-.967-.089C2184.971,1597.616,2187.322,1592.69,2187.322,1586.889Z" transform="translate(-2161.512 -1565.879)" fill="#ba9a9d"/>
        <path id="Path_13979" data-name="Path 13979" d="M2120.2,1528.525l11.163-16.188,4.384,3.023-11.164,16.188c-.3.434-1.523.11-2.733-.725S2119.9,1528.958,2120.2,1528.525Z" transform="translate(-2098.599 -1511.677)" fill="#514546"/>
        <path d="M 4.914 0.781 A 2.457 0.781 0 0 1 2.457 1.562 A 2.457 0.781 0 0 1 0 0.781 A 2.457 0.781 0 0 1 2.457 0 A 2.457 0.781 0 0 1 4.914 0.781 Z" id="Ellipse_1191" data-name="Ellipse 1191" transform="translate(25.373 20.398) rotate(-145.411)" fill="#1a1a1a"/>
        <path id="Path_13980" data-name="Path 13980" d="M2217.846,1650.42a1.422,1.422,0,0,1,1.2-1.5v0h.012l1.37-2.011h0c.085-.12.624.1,1.206.5s.989.818.905.94v0l-1.027,1.508a1.734,1.734,0,0,1,.1.568,1.407,1.407,0,0,1-1.28,1.506h-1.28v0A1.422,1.422,0,0,1,2217.846,1650.42Z" transform="translate(-2197.664 -1629.334)" fill="#514546"/>
      </g>
      <g id="Group_59729" data-name="Group 59729" transform="translate(69.861 92.234)">
        <path id="Path_13981" data-name="Path 13981" d="M1595.958,1528.54c0,11.354,5.422,20.558,17.019,20.558s18.224-9.2,18.224-20.558-7.889-21.462-17.621-21.462C1602.585,1507.078,1595.958,1517.186,1595.958,1528.54Z" transform="translate(-1595.958 -1507.078)" fill="#3a3434"/>
        <path d="M 18.826 13.781 A 9.413 13.781 0 0 1 9.413 27.562 A 9.413 13.781 0 0 1 0 13.781 A 9.413 13.781 0 0 1 9.413 0 A 9.413 13.781 0 0 1 18.826 13.781 Z" id="Ellipse_1192" data-name="Ellipse 1192" transform="translate(11.748 7.229)" fill="#f6f0f0"/>
        <path d="M 17.32 13.178 A 8.66 13.178 0 0 1 8.66 26.356001 A 8.66 13.178 0 0 1 0 13.178 A 8.66 13.178 0 0 1 8.66 0 A 8.66 13.178 0 0 1 17.32 13.178 Z" id="Ellipse_1193" data-name="Ellipse 1193" transform="translate(12.501 7.832)" fill="#ceb4b7"/>
        <path id="Path_13982" data-name="Path 13982" d="M1647.952,1586.889c0-5.8-2.351-10.727-5.616-12.487a5.513,5.513,0,0,1,.967-.089c4.564,0,8.264,5.63,8.264,12.576s-3.7,12.576-8.264,12.576a5.513,5.513,0,0,1-.967-.089C1645.6,1597.616,1647.952,1592.69,1647.952,1586.889Z" transform="translate(-1622.143 -1565.879)" fill="#ba9a9d"/>
      </g>
      <path id="Path_13983" data-name="Path 13983" d="M2136.78,1410.419c-5.955-.14-17.513,2.647-21.229,13.8-.509,1.426,1.324,1.833,3.716,2.138s12.22.509,15.783.509h6.414c1.043,0,4.594,3.755,7.668,10.78,1.585,3.589,1.547,3.818.936,4.315,0,0,.534-.1,1.26-1.127s.3-16.055-3.4-22.356S2141.667,1410.533,2136.78,1410.419Z" transform="translate(-2111.687 -1330.306)" fill="#1e93e0"/>
      <path id="Path_13984" data-name="Path 13984" d="M2150.14,1459.85c-.039-1.414-.145-3.135-.355-5.023-.578-5.209-1.672-9.4-3.082-11.794a22.072,22.072,0,0,0-3.932-5.277c-1.75-1.568-18.465,11.119-14.216,11.2,6.1.119,12.98.194,12.98.194C2143.945,1449.15,2147.647,1454.495,2150.14,1459.85Z" transform="translate(-2111.76 -1354.1)" fill="#4393da"/>
      <path id="Path_13985" data-name="Path 13985" d="M1625.862,1585.3h31.615c2.138,0,8.991-8.909,9.612-10.984h14.185s-2.721,11.146-3.943,14.157-3.484,3.776-7.355,3.776h-34.034C1632.888,1592.246,1631.208,1591.94,1625.862,1585.3Z" transform="translate(-1579.922 -1473.645)" fill="#373131"/>
      <path id="Path_13986" data-name="Path 13986" d="M1625.862,1585.3h16.063c2.138,0,8.991-8.909,9.612-10.984h14.185s-2.721,11.146-3.942,14.157-3.485,3.776-7.355,3.776h-18.482C1632.888,1592.246,1631.208,1591.94,1625.862,1585.3Z" transform="translate(-1564.37 -1473.645)" fill="#453c3d"/>
      <path id="Path_13987" data-name="Path 13987" d="M1677.862,1634.013c.965,0,2.89-1.814,4.77-4h11.242c2.9,0,2.775,3.125,2.448,4.522-.871,3.723-2.319,4.918-5.959,4.918H1671.88c-1.6,0-2.729-1.568-4.781-5.443Z" transform="translate(-1600.307 -1522.361)" fill="#594f4e"/>
      <path id="Path_13988" data-name="Path 13988" d="M1772.489,1536.424s-6.329-5.434-14.576-5.434H1739.2s-2.291,13.975,6.72,13.975h16.342C1765.4,1544.964,1772.489,1536.424,1772.489,1536.424Z" transform="translate(-1685.322 -1435.756)" fill="#ccb2b3"/>
      <path id="Path_13989" data-name="Path 13989" d="M1752.08,1109.125c9.546-11.455,29.643-8.706,33.8,0s5.53,12.982.26,46.277c0,0-2.291,13.975,6.72,13.975H1809.2c3.131,0,10.223-8.54,10.223-8.54-.621,2.075-7.474,10.984-9.612,10.984h-39.175s.534-.1,1.26-1.126.305-16.056-3.4-22.356-6.262-7.942-11.149-8.057c-4.84-.114-13.382,1.707-18.406,8.379h0S1742.534,1120.579,1752.08,1109.125Z" transform="translate(-1732.257 -1060.168)" fill="#0f0f0f"/>
      <g id="Group_59733" data-name="Group 59733" transform="translate(39.948 41.485)">
        <g id="Group_59732" data-name="Group 59732" transform="translate(0)">
          <g id="Group_59730" data-name="Group 59730" transform="translate(2.88 0.444)" opacity="0.5">
            <path id="Path_13990" data-name="Path 13990" d="M1747.858,1164.2c-.234-7.774,2.6-16.211,3.436-35.836.778-18.168-12.332-22.293-12.351-22.3,5,1.067,9.147,3.579,10.793,7.027,4.155,8.705,5.53,12.982.26,46.277,0,0-2.291,13.975,6.72,13.975h16.342c3.131,0,10.223-8.54,10.223-8.54-.621,2.075-7.474,10.984-9.612,10.984h-17.64C1749.92,1173.721,1748.011,1169.279,1747.858,1164.2Z" transform="translate(-1738.943 -1106.061)" fill="#2f2f2f"/>
          </g>
          <g id="Group_59731" data-name="Group 59731" opacity="0.5">
            <path id="Path_13991" data-name="Path 13991" d="M2095.3,1102.964l-2.879-.444A25.691,25.691,0,0,1,2095.3,1102.964Z" transform="translate(-2092.416 -1102.52)" fill="#2f2f2f"/>
          </g>
        </g>
      </g>
      <path id="Path_13992" data-name="Path 13992" d="M2331.813,1035.954l7.078-.248v1.547l-7.078.277c-.288,0-.521-.352-.521-.788S2331.524,1035.954,2331.813,1035.954Z" transform="translate(-2326.028 -1002.602)" fill="url(#linear-gradient)"/>
      <path id="Path_13993" data-name="Path 13993" d="M2039.751,1101.584l3.925.523s12.964,4.278,9.6,24.285-5.9,16.953-11.044,15.12-17.816-5.2-25.917-1.227-4.124-9.617-2.291-14.046c1.012-2.447,4.014-10.346,6.5-16.927.049-.06.1-.12.147-.179C2025.482,1103.362,2032.971,1101.2,2039.751,1101.584Z" transform="translate(-2000.849 -1060.178)" fill="#0f0f0f"/>
      <path id="Path_13994" data-name="Path 13994" d="M2277.342,1009.385l1.459-.283h0c.256-1.314.987-2.263,1.85-2.263h1.12v.6a4.807,4.807,0,0,1,0,5.392v.6h-1.12a1.361,1.361,0,0,1-.913-.384h0l-2.3.129v0c-.032,0-.063,0-.1,0a1.9,1.9,0,1,1,0-3.793Z" transform="translate(-2262.724 -977.357)" fill="url(#linear-gradient)"/>
      <path id="Path_13995" data-name="Path 13995" d="M2268.414,1009.385l1.459-.283h0c.256-1.314.987-2.263,1.849-2.263,1.075,0,1.948,1.476,1.948,3.3s-.872,3.3-1.948,3.3a1.361,1.361,0,0,1-.912-.384h0l-2.3.129v0c-.032,0-.063,0-.095,0a1.9,1.9,0,1,1,0-3.793Z" transform="translate(-2252.676 -977.357)" fill="url(#linear-gradient-3)"/>
      <path id="Path_13996" data-name="Path 13996" d="M2101.413,1102.265a26.5,26.5,0,0,1,11.6-.156h0s-4.524,4.938-9.271,42.255h0a9.855,9.855,0,0,0-8.462-4.072,21.647,21.647,0,0,0-2.856.137h0S2093.654,1118.355,2101.413,1102.265Z" transform="translate(-2070.182 -1060.18)" fill="#1e93e0"/>
      <path id="Path_13997" data-name="Path 13997" d="M2121.182,1101.9c-.118.172-5.619,8.334-9.125,41.326v0c-2.132-2.15-4.307-2.853-7.438-2.926a21.627,21.627,0,0,0-2.856.137h0s1.238-22.073,9-38.163A26.526,26.526,0,0,1,2121.182,1101.9Z" transform="translate(-2079.528 -1060.188)" fill="#1e93e0"/>
      <path id="Path_13998" data-name="Path 13998" d="M2022.761,969.389s-4.594-.229-8.1,0-3.852,3.434-4.1,6.49h-11.047s1.559-6.541-4.015-6.592c0,0-6.8.255-7.98.331s-1.833-1.527-1.795-2.749.42-2.749,1.985-2.825l7.751-.573,8.248-6.262a11,11,0,0,1,8.018,3.818c2.934,3.4,12.218,2.635,12.218,2.635Z" transform="translate(-1967.734 -933.949)" fill="#0f0f0f"/>
      <path id="Path_13999" data-name="Path 13999" d="M2014.66,1012.8a3.7,3.7,0,0,0-3.558,2.95,13.25,13.25,0,0,0-3.869,1.149,6.628,6.628,0,0,1-7.644-.924,3.771,3.771,0,0,0-4.09-3.276s-6.8.254-7.98.331-1.833-1.527-1.795-2.749a5.389,5.389,0,0,1,.132-1.055c5.908,4.949,9.643-.683,9.643-.683l14.03-1.7c8.3,5.218,14.416.229,14.416.229l-1.184,5.727S2018.167,1012.567,2014.66,1012.8Z" transform="translate(-1967.734 -977.357)" fill="#0f0f0f"/>
      <path d="M 12.752 7.924 A 6.376 7.924 0 0 1 6.376 15.848 A 6.376 7.924 0 0 1 0 7.924 A 6.376 7.924 0 0 1 6.376 0 A 6.376 7.924 0 0 1 12.752 7.924 Z" id="Ellipse_1194" data-name="Ellipse 1194" transform="translate(27.765 23.257)" fill="url(#linear-gradient-4)"/>
      <path id="Path_14000" data-name="Path 14000" d="M2105.837,965.13c0-4.376-2.855-7.924-6.377-7.924h1.426c3.522,0,6.377,3.548,6.377,7.924s-2.855,7.924-6.377,7.924h-1.426C2102.982,973.054,2105.837,969.506,2105.837,965.13Z" transform="translate(-2065.319 -933.949)" fill="#caadb1"/>
      <path d="M 9.574 5.949 A 4.787 5.949 0 0 1 4.787 11.898 A 4.787 5.949 0 0 1 0 5.949 A 4.787 5.949 0 0 1 4.787 0 A 4.787 5.949 0 0 1 9.574 5.949 Z" id="Ellipse_1195" data-name="Ellipse 1195" transform="translate(29.354 25.232)" fill="url(#linear-gradient-5)"/>
      <path d="M 9 5.593 A 4.5 5.593 0 0 1 4.5 11.186 A 4.5 5.593 0 0 1 0 5.593 A 4.5 5.593 0 0 1 4.5 0 A 4.5 5.593 0 0 1 9 5.593 Z" id="Ellipse_1196" data-name="Ellipse 1196" transform="translate(29.641 25.589)" fill="url(#linear-gradient-4)"/>
      <path d="M 8.386 5.211 A 4.193 5.211 0 0 1 4.193 10.422 A 4.193 5.211 0 0 1 0 5.211 A 4.193 5.211 0 0 1 4.193 0 A 4.193 5.211 0 0 1 8.386 5.211 Z" id="Ellipse_1197" data-name="Ellipse 1197" transform="translate(29.948 25.97)" fill="url(#linear-gradient-7)"/>
      <path d="M 7.984 4.567 A 3.992 4.567 0 0 1 3.992 9.134 A 3.992 4.567 0 0 1 0 4.567 A 3.992 4.567 0 0 1 3.992 0 A 3.992 4.567 0 0 1 7.984 4.567 Z" id="Ellipse_1198" data-name="Ellipse 1198" transform="translate(29.762 25.79)" fill="#fff" opacity="0.5"/>
      <path id="Path_14001" data-name="Path 14001" d="M2144.333,983.908c.04,1.981.317-.047,2.646-.537,1.611-.339,3.781,2.459,3.781-.5s.189-3.439-2.214-3.821C2146.194,978.672,2144.273,980.945,2144.333,983.908Z" transform="translate(-2114.448 -953.014)" fill="#fff" opacity="0.5"/>
      <path id="Path_14002" data-name="Path 14002" d="M2154.233,986.324c.566.412-.283-1.61,1.464-2.9.514-.379.386-.489,2.021-.248.957.141.9-.546-.528-.773C2155.174,982.085,2152.826,985.3,2154.233,986.324Z" transform="translate(-2123.236 -955.968)" fill="#fff" opacity="0.5"/>
      <path id="Path_14003" data-name="Path 14003" d="M1967.478,1009.385l1.46-.283h0c.256-1.314.987-2.263,1.849-2.263h1.12v.6a4.806,4.806,0,0,1,0,5.392v.6h-1.12a1.361,1.361,0,0,1-.912-.384h0l-2.3.129v0c-.032,0-.063,0-.1,0a1.9,1.9,0,1,1,0-3.793Z" transform="translate(-1913.991 -977.357)" fill="url(#linear-gradient)"/>
      <path id="Path_14004" data-name="Path 14004" d="M1958.55,1009.385l1.46-.283h0c.256-1.314.987-2.263,1.849-2.263,1.075,0,1.947,1.476,1.947,3.3s-.872,3.3-1.947,3.3a1.361,1.361,0,0,1-.912-.384h0l-2.3.129v0c-.032,0-.063,0-.1,0a1.9,1.9,0,1,1,0-3.793Z" transform="translate(-1903.943 -977.357)" fill="url(#linear-gradient-3)"/>
      <path id="Path_14005" data-name="Path 14005" d="M1431.6,1365.4H1459.9c2.807,3.517,5.541,9.573,5.572,19.816H1431.6c-4.094,0-7.443-2.323-7.443-5.163v-9.489C1424.155,1367.728,1427.5,1365.4,1431.6,1365.4Z" transform="translate(-1338.822 -1290.942)" fill="#0f0f0f"/>
      <path id="Path_14006" data-name="Path 14006" d="M1431.6,1365.4H1454c2.807,3.517,5.541,9.573,5.572,19.816H1431.6c-4.094,0-7.443-2.323-7.443-5.163v-9.489C1424.155,1367.728,1427.5,1365.4,1431.6,1365.4Z" transform="translate(-1332.916 -1290.942)" fill="#0f0f0f"/>
      <path id="Path_14007" data-name="Path 14007" d="M2306.59,1011.119l-1.46.283s-.006-1.057-.006-1.667.973-.783,1.126-.344.407,1.433.407,1.433S2306.608,1011.022,2306.59,1011.119Z" transform="translate(-2290.511 -979.372)" fill="url(#linear-gradient-4)"/>
      <path d="M 10.08 7.331 A 5.04 7.331 0 0 1 5.04 14.662 A 5.04 7.331 0 0 1 0 7.331 A 5.04 7.331 0 0 1 5.04 0 A 5.04 7.331 0 0 1 10.08 7.331 Z" id="Ellipse_1199" data-name="Ellipse 1199" transform="translate(0 0)" fill="#baa0a3"/>
      <path d="M 9.634 7.007 A 4.817 7.007 0 0 1 4.817 14.014 A 4.817 7.007 0 0 1 0 7.007 A 4.817 7.007 0 0 1 4.817 0 A 4.817 7.007 0 0 1 9.634 7.007 Z" id="Ellipse_1200" data-name="Ellipse 1200" fill="url(#linear-gradient-4)"/>
      <path id="Path_14008" data-name="Path 14008" d="M2384.748,820.225a1.293,1.293,0,1,0-.109-2.105A1.535,1.535,0,0,0,2384.748,820.225Z" transform="translate(-2380.923 -812.135)" fill="url(#linear-gradient-12)"/>
      <path id="Path_14009" data-name="Path 14009" d="M2321.148,855.125s-1.105-9.223-1.586-12.231c-.7-4.351-5.266-8.11-7.511-9.72-.749-.537-1.149.555-.424,1.046,2.195,1.484,6.673,4.943,7.171,8.75.448,3.436,1.781,12.328,1.781,12.328Z" transform="translate(-2305.772 -825.349)" fill="url(#linear-gradient-13)"/>
      <path id="Path_14010" data-name="Path 14010" d="M1996.8,1011.2s.005-.859.005-1.47-.974-.783-1.126-.344-.537,2.138-.537,2.138A9.962,9.962,0,0,0,1996.8,1011.2Z" transform="translate(-1941.775 -979.372)" fill="url(#linear-gradient-14)"/>
    </g>
    <path id="Path_14011" data-name="Path 14011" d="M1825.78,1619.856a5.9,5.9,0,0,1-4.648-1.943h0s19.947-.806,20.3-.806.254-.484.254-.484.306,0,.331,1.171.011,2.062.011,2.062Z" transform="translate(-1765.178 -1466.226)" fill="#fdf4f5"/>
    <path id="Path_14012" data-name="Path 14012" d="M1834.61,1537.281a7.045,7.045,0,0,1,6.186,3.428c.573,1.078.573,1.23,1.413.772s2.291-1.451,1.947-2.367c0,0,1.528-.115,1.718,3.245a39.278,39.278,0,0,1,.064,4.862l.013.122c0,.143-.028.362-.267.362-.356,0-20.3.806-20.3.806h0a8.784,8.784,0,0,1-1.82-3.714C1823.565,1544.792,1831.328,1537.51,1834.61,1537.281Z" transform="translate(-1769.426 -1396.824)" fill="#27405c"/>
    <path id="Path_14013" data-name="Path 14013" d="M1936.387,1570a12.583,12.583,0,0,0-2.018-.227,20.188,20.188,0,0,0-2.53.291.674.674,0,0,1,.167-.584,1.862,1.862,0,0,1,1.214-.551,12.472,12.472,0,0,1,2.117-.2,14.778,14.778,0,0,1,2.176.26c.272.018.925.386.44.761A1.78,1.78,0,0,1,1936.387,1570Z" transform="translate(-1875.155 -1424.343)" fill="#fdf4f5"/>
    <path id="Path_14014" data-name="Path 14014" d="M1923.344,1559.326a12.622,12.622,0,0,0-2.018-.226,20.208,20.208,0,0,0-2.53.29.674.674,0,0,1,.167-.584,2.246,2.246,0,0,1,1.313-.527,11.337,11.337,0,0,1,2.018-.223,14.759,14.759,0,0,1,2.175.26c.272.017.925.385.44.761A1.78,1.78,0,0,1,1923.344,1559.326Z" transform="translate(-1860.476 -1415.005)" fill="#fdf4f5"/>
    <path id="Path_14015" data-name="Path 14015" d="M1910.094,1549.129a12.627,12.627,0,0,0-2.019-.226,20.214,20.214,0,0,0-2.53.29c-.032-.183.2-.464.373-.664a2.425,2.425,0,0,1,1.357-.526,8.722,8.722,0,0,1,1.769-.144,14.764,14.764,0,0,1,2.176.26c.272.017.925.385.44.761A1.779,1.779,0,0,1,1910.094,1549.129Z" transform="translate(-1845.566 -1406.087)" fill="#fdf4f5"/>
    <path id="Path_14016" data-name="Path 14016" d="M1845.282,1537.589c-.84.458-.84.305-1.413-.772a7.045,7.045,0,0,0-6.185-3.428l.478-.458a10.413,10.413,0,0,0,7.984-.115l1.083,2.405C1847.573,1536.138,1846.122,1537.131,1845.282,1537.589Z" transform="translate(-1772.5 -1392.932)" fill="#fdf4f5"/>
    <path id="Path_14017" data-name="Path 14017" d="M1843.613,1472.391l-.382,7.314s-3.551,2.155-11.417,0c0,0-1.738-6.3-1.937-7.353C1831.939,1471.456,1839.012,1472.983,1843.613,1472.391Z" transform="translate(-1767.853 -1339.799)" fill="#504250"/>
    <path d="M 13.736 1.655 A 6.868 1.655 0 0 1 6.868 3.31 A 6.868 1.655 0 0 1 0 1.655 A 6.868 1.655 0 0 1 6.868 0 A 6.868 1.655 0 0 1 13.736 1.655 Z" id="Ellipse_1201" data-name="Ellipse 1201" transform="translate(62.025 130.899)" fill="#6e606e"/>
    <path id="Path_14018" data-name="Path 14018" d="M1672.166,1072.617c4.887-3.176,7.254-3.481,12.371-2.565s22.3,7.1,22.3,7.1,1.37,13.2-6,14.505c-8.36-.962-11.185-4.654-16-5.036-2.673-.076-2.215,1.961-2.215,4.073,0,2.048,2.893,28.019,3.07,29.6a.352.352,0,0,1,.008.076c0,.79-2.658,1.43-5.937,1.43s-5.937-.64-5.937-1.43c0,0-4.034-25.582-5.1-31.768S1667.278,1075.792,1672.166,1072.617Z" transform="translate(-1610.877 -987.823)" fill="#3c2e3b"/>
    <path id="Path_14019" data-name="Path 14019" d="M1718.91,1205.284c4.811.382,7.636,4.073,16,5.036l-18.21-.962C1716.7,1207.245,1716.237,1205.207,1718.91,1205.284Z" transform="translate(-1644.944 -1106.484)" fill="#281a27"/>
    <path id="Path_14020" data-name="Path 14020" d="M1951.84,1079.955a17.258,17.258,0,0,1,.541-3.54c6.516-1.1,17.094,2.595,17.094,2.595h0c-4.01,3.363-3.614,9.567-2.609,15.379.11.638.252,1.483.418,2.485l-1.312.065a31.636,31.636,0,0,0-3.337-9.957c-1.646-3.449-5.8-5.961-10.8-7.027Z" transform="translate(-1909.013 -993.604)" fill="#322431"/>
    <path id="Path_14021" data-name="Path 14021" d="M1662.843,699.661c2.037-8.451,12.32-10.691,12.32-10.691,4.569-.509,8.693-.356,12.985-3.3a6.081,6.081,0,0,1,3.052,1.662c19.549,3.3,22.909,16.481,23.673,18.39s-3.7,3.6-3.7,3.6c4.7,12.31,6.529,32.9,6.529,32.9h-.74l-.04,0c-.028-.532-.06-.844-.06-.844s-17.182-6.185-22.3-7.1-7.483-.611-12.371,2.565a8.418,8.418,0,0,0-.827.612h0c-1.642-8.431-7.8-22.828-7.8-22.828a15.435,15.435,0,0,1-11.273-3.494A47.57,47.57,0,0,1,1662.843,699.661Z" transform="translate(-1620.9 -652.051)" fill="#4393da"/>
    <path id="Path_14022" data-name="Path 14022" d="M1662.521,854.4c2.868,2.289,8.943,4.024,9.045,1.6a22.991,22.991,0,0,1,1.019-5.216c3.156,19.346,11.709,15.477,15.023,16.083s14.708-.2,16.694-.972,0-10.358,0-10.358l7.415-.2c4.267,12.41,5.948,31.291,5.948,31.291h-.739l-.04,0c-.028-.532-.06-.844-.06-.844s-17.182-6.186-22.3-7.1-7.484-.611-12.371,2.565a8.389,8.389,0,0,0-.827.612h0c-1.642-8.431-7.8-22.828-7.8-22.828a15.435,15.435,0,0,1-11.272-3.494s-.054-.583-.091-1.568A1.994,1.994,0,0,0,1662.521,854.4Z" transform="translate(-1620.866 -796.461)" fill="#4393da"/>
    <path id="Path_14023" data-name="Path 14023" d="M1702.873,860.183s6.879,17.821,0,21.507-14.038,3.185-24.262,3.152c0,0-.92,1.624-1.836,1.029a1.6,1.6,0,0,1-1.782.582c-1.222-.313-1.755-.6-2.456,0s-1.744-.394-2.5-.582-1.464.85-2.329-.382-2.256-2.926-1.922-4.439,1.5-4.124,2.219-4.684,1.51.076,1.867.051.585-.535,1.375-.382.842.713,1.286.713.318-.891,1.463-.636.713.789,1.629.84,1.807-.331,2.469.865c0,0,10.745-.007,17.666-3.131a25.1,25.1,0,0,0-2.749-10.926A21.437,21.437,0,0,0,1702.873,860.183Z" transform="translate(-1609.58 -804.674)" fill="#f9a186" style="fill: rgb(152, 90, 74);"/>
    <path id="Path_14024" data-name="Path 14024" d="M1862.977,1007.556q-1.276-.011-2.619-.016c1.479-2.826-.512-7.026-.512-7.026s.519,0,1.4-.034C1861.137,1003.139,1864.377,1002.765,1862.977,1007.556Z" transform="translate(-1791.327 -927.372)" fill="#ee8c74" style="fill: rgb(152, 90, 74);"/>
    <path id="Path_14025" data-name="Path 14025" d="M1873.75,1023.25c.229-1.048.965-1.791,1.7-1.755h1.026l-.078.653a2.51,2.51,0,0,1,.191,1.721,2.744,2.744,0,0,1-.53,1.135l-.074.622-.938-.006a1.065,1.065,0,0,1-.212,0h-.014v0c-.031,0-.064-.007-.1-.014C1873.939,1025.431,1873.5,1024.378,1873.75,1023.25Z" transform="translate(-1806.389 -945.75)" fill="#ceb4b7"/>
    <path d="M 2.902 2.091 A 1.451 2.091 0 0 1 1.451 4.182 A 1.451 2.091 0 0 1 0 2.091 A 1.451 2.091 0 0 1 1.451 0 A 1.451 2.091 0 0 1 2.902 2.091 Z" id="Ellipse_1202" data-name="Ellipse 1202" transform="translate(70.782 80.161) rotate(-167.69)" fill="url(#linear-gradient-15)"/>
    <g id="Group_59735" data-name="Group 59735" transform="translate(58.131 76.068)">
      <path id="Path_14026" data-name="Path 14026" d="M1948.611,1024.6c.229-.75,1.26-.815.84.61s1.871,4.149,1.871,4.149h0a2.278,2.278,0,0,0-.408-.156.989.989,0,0,0-.477.013C1949.363,1027.835,1948.409,1025.266,1948.611,1024.6Z" transform="translate(-1948.584 -1024.078)" fill="#ee8c74" opacity="0.5"/>
      <path id="Path_14027" data-name="Path 14027" d="M1924.348,1029.53c-1.175-1.267-2.308-4.21-2.089-4.928.229-.75,1.26-.815.84.61s1.972,3.994,1.972,3.994.047.117.093.266A1.375,1.375,0,0,0,1924.348,1029.53Z" transform="translate(-1919.12 -1024.078)" fill="#ee8c74" opacity="0.5"/>
      <path id="Path_14028" data-name="Path 14028" d="M1898.188,1024.6c.229-.75,1.26-.815.84.61s1.972,3.994,1.972,3.994a1.514,1.514,0,0,1-.567.484C1899.2,1028.529,1897.959,1025.352,1898.188,1024.6Z" transform="translate(-1891.937 -1024.078)" fill="#ee8c74" opacity="0.5"/>
    </g>
    <path d="M 1.032 0 H 7.826 A 1.032 1.032 0 0 1 8.858 1.032 V 1.033 A 1.032 1.032 0 0 1 7.826 2.065 H 1.032 A 1.032 1.032 0 0 1 0 1.033 V 1.032 A 1.032 1.032 0 0 1 1.032 0 Z" id="Rectangle_2030" data-name="Rectangle 2030" transform="matrix(-0.997, -0.079, 0.079, -0.997, 64.795, 79.978)" fill="#fdf4f5"/>
    <path d="M 1.032 0 H 7.826 A 1.032 1.032 0 0 1 8.858 1.032 V 1.033 A 1.032 1.032 0 0 1 7.826 2.065 H 1.032 A 1.032 1.032 0 0 1 0 1.033 V 1.032 A 1.032 1.032 0 0 1 1.032 0 Z" id="Rectangle_2031" data-name="Rectangle 2031" transform="matrix(-0.997, -0.079, 0.079, -0.997, 64.289, 79.938)" fill="url(#linear-gradient-16)"/>
    <path id="Path_14029" data-name="Path 14029" d="M2022.961,892.373h0a15.731,15.731,0,0,0,9.7,3.072l0,0a22.413,22.413,0,0,1-2.014,11.284c-2.228-.339-4.449-1.032-5.635-2.405a12.351,12.351,0,0,0-3.475-2.656h0S2023.572,898.935,2022.961,892.373Z" transform="translate(-1981.018 -832.826)" fill="#f9a186" style="fill: rgb(152, 90, 74);"/>
    <path d="M 13.538 6.79 A 6.769 6.79 0 0 1 6.769 13.58 A 6.769 6.79 0 0 1 0 6.79 A 6.769 6.79 0 0 1 6.769 0 A 6.769 6.79 0 0 1 13.538 6.79 Z" id="Ellipse_1203" data-name="Ellipse 1203" transform="translate(57.831 44.963)" fill="#baa0a3"/>
    <path d="M 12.94 6.49 A 6.47 6.49 0 0 1 6.47 12.98 A 6.47 6.49 0 0 1 0 6.49 A 6.47 6.49 0 0 1 6.47 0 A 6.47 6.49 0 0 1 12.94 6.49 Z" id="Ellipse_1204" data-name="Ellipse 1204" transform="translate(58.43 44.963)" fill="url(#linear-gradient-17)"/>
    <path d="M 2.444 1.718 A 1.222 1.718 0 0 1 1.222 3.436 A 1.222 1.718 0 0 1 0 1.718 A 1.222 1.718 0 0 1 1.222 0 A 1.222 1.718 0 0 1 2.444 1.718 Z" id="Ellipse_1205" data-name="Ellipse 1205" transform="translate(64.749 53.859) rotate(-141.621)" fill="url(#linear-gradient-18)"/>
    <path id="Path_14030" data-name="Path 14030" d="M1922.3,855.125s1.106-9.223,1.587-12.231c.7-4.351,5.266-8.11,7.51-9.72.75-.537,1.149.555.424,1.046-2.195,1.484-6.673,4.943-7.17,8.75-.449,3.436-1.781,12.328-1.781,12.328Z" transform="translate(-1868.033 -780.927)" fill="url(#linear-gradient-19)"/>
    <path id="Path_14031" data-name="Path 14031" d="M1901.389,675.669l1.146,4.658s.742,4.276-3.486,4.964-6.595.153-7.282-1.833-1.107-3.742-1.107-3.742Z" transform="translate(-1834.449 -643.306)" fill="#ee8c74" style="fill: rgb(152, 89, 74);"/>
    <path id="Path_14032" data-name="Path 14032" d="M1856.412,507.676a1.531,1.531,0,0,1,.939.083c0-.017,0-.035,0-.051.224-2.323,3.833-11.348,3.833-11.348H1879.9l1.761,8.543a6.8,6.8,0,0,0-.928,3.3,9.311,9.311,0,0,0,.911,4.941c.9,1.9,2.363,4.035,1.4,5.863-.537,3.377-8.234,6.866-15.077,4.579-5.209-1.741-8.1-6.418-9.509-10.321a1.471,1.471,0,0,1-.606.318c-1.1.27-2.323-.833-2.722-2.465S1855.308,507.945,1856.412,507.676Z" transform="translate(-1810.756 -486.489)" fill="#f9a186" style="fill: rgb(152, 90, 74);"/>
    <g id="Group_59736" data-name="Group 59736" transform="translate(48.74 10.985)">
      <path id="Path_14033" data-name="Path 14033" d="M1870.589,505.564c5.656-1.356,10.412,2.056,13.769,1.934,3.17-.115,2.927.4,3.687.706a5.275,5.275,0,0,1,2.348,3.215l.258,1.254s-1-5.208-16.466-5.468c-4.193-.02-4.871,6.706-5.629,7.752C1868.465,511.783,1870.589,505.564,1870.589,505.564Z" transform="translate(-1868.481 -505.245)" fill="#ee8c74" style="fill: rgb(152, 90, 74);"/>
      <path id="Path_14034" data-name="Path 14034" d="M2044.763,582.675a.164.164,0,0,1-.074.051Z" transform="translate(-2044.689 -572.962)" fill="#ee8c74"/>
    </g>
    <path d="M 7.266 3.633 A 3.633 3.633 0 0 1 3.633 7.266 A 3.633 3.633 0 0 1 0 3.633 A 3.633 3.633 0 0 1 3.633 0 A 3.633 3.633 0 0 1 7.266 3.633 Z" id="Ellipse_1206" data-name="Ellipse 1206" transform="matrix(-0.526, -0.851, 0.851, -0.526, 52.981, 30.495)" fill="url(#radial-gradient)" style="fill: rgb(152, 90, 74);"/>
    <path d="M 6.498 3.249 A 3.249 3.249 0 0 1 3.249 6.498 A 3.249 3.249 0 0 1 0 3.249 A 3.249 3.249 0 0 1 3.249 0 A 3.249 3.249 0 0 1 6.498 3.249 Z" id="Ellipse_1207" data-name="Ellipse 1207" transform="translate(63.679 29.231) rotate(-103.283)" fill="url(#radial-gradient-2)" style="fill: rgb(152, 90, 74);"/>
    <path id="Path_14035" data-name="Path 14035" d="M1869.151,444h0c3.057-3.942,7.165-6.228,16.988-.432.475,0,6.226,2.492,4.146,12.1,0,0-.268-3.192-2.606-4.469-.76-.306-.516-.822-3.686-.706-3.356.122-8.113-3.291-13.769-1.934h0s-2.124,6.219-2.034,9.394c-1.372.99-2.2.4-2.2.4S1862.178,448.4,1869.151,444Z" transform="translate(-1819.375 -437.256)" fill="#553326"/>
    <path id="Path_14036" data-name="Path 14036" d="M1916.8,650.107s-2.929,1.425-8.6,0c0,0,.9,4.708,5.3,4.431S1916.8,650.107,1916.8,650.107Z" transform="translate(-1850.986 -620.951)" fill="#7b2e28"/>
    <path id="Path_14037" data-name="Path 14037" d="M1921.141,651.056a12.088,12.088,0,0,1-6.588,0,.916.916,0,0,0,.6,1.217,9.654,9.654,0,0,0,5.364-.148A1.07,1.07,0,0,0,1921.141,651.056Z" transform="translate(-1856.005 -621.781)" fill="#fff"/>
    <path id="Path_14038" data-name="Path 14038" d="M1986.9,559.349l-.277,1.5a10.248,10.248,0,0,0-4.75-.2l-.2-.831S1983.532,558.082,1986.9,559.349Z" transform="translate(-1930.178 -541.174)" fill="#462921"/>
    <path id="Path_14039" data-name="Path 14039" d="M1889.772,555.364l.277,1.966a5.877,5.877,0,0,1,4.029.577l.427-.577S1893.493,554.849,1889.772,555.364Z" transform="translate(-1826.257 -538.031)" fill="#462921"/>
    <path id="Path_14040" data-name="Path 14040" d="M2063.546,594.164c-.905-.009-.119-1.551-.911-1.235s-.917.7-.917.7.063-1.432.923-1.432C2063.913,592.2,2063.9,594.168,2063.546,594.164Z" transform="translate(-2017.074 -570.305)" fill="#ee8c74" style="fill: rgb(152, 90, 74);"/>
    <path id="Path_14041" data-name="Path 14041" d="M2056.36,611.088c-1.1.27-2.323-.833-2.721-2.465a4.421,4.421,0,0,1-.116-.773c1.488,3.238,3.088,1.923,3.088,1.923.179.564.347.975.356,1A1.467,1.467,0,0,1,2056.36,611.088Z" transform="translate(-2009.26 -583.994)" fill="#ee8c74" style="fill: rgb(152, 90, 74);"/>
    <path id="Path_14042" data-name="Path 14042" d="M1855.2,578.377l2.01.539c-.634,5.441,3.854,8.881,6.546,8.036,6.585-3.932,12.272-.29,13.539.026s1.171-4.576,1.171-4.576h0a13.237,13.237,0,0,0,.822,2.47c.9,1.9,2.363,4.036,1.4,5.863-.538,3.377-8.234,6.866-15.077,4.579-5.209-1.741-8.1-6.418-9.509-10.321a17.566,17.566,0,0,1-1.094-5.678A8.735,8.735,0,0,1,1855.2,578.377Zm15.038,14.144c4.681,0,5.235-2.3,4.76-5.146a19.346,19.346,0,0,1-10.278,0S1865.556,592.521,1870.237,592.521Z" transform="translate(-1808.395 -558.219)" fill="#553326"/>
    <path id="Path_14043" data-name="Path 14043" d="M1870.654,600.893c7.908.836,10.174-4.729,10.343-5.179a2.829,2.829,0,0,1-.3,1.573c-.537,3.377-8.234,6.866-15.077,4.579-5.209-1.741-8.1-6.418-9.509-10.321a17.567,17.567,0,0,1-1.094-5.678C1859.013,596.415,1862.414,600.022,1870.654,600.893Z" transform="translate(-1808.4 -564.769)" fill="#462921"/>
    <path id="Path_14044" data-name="Path 14044" d="M1928.967,585.13s.739-.376,1.227,1.04.832,2.5,1.778,2.872.968,2.827-1.684,2.352-3.191-1.916-2.562-3.806S1928.3,585.537,1928.967,585.13Z" transform="translate(-1869.038 -564.085)" fill="#fe8473" style="fill: rgb(218, 129, 106);"/>
    <path id="Path_14045" data-name="Path 14045" d="M1930.547,620.373c-.118.175-.449.159-.739-.037s-.429-.5-.311-.671.449-.159.74.037S1930.665,620.2,1930.547,620.373Z" transform="translate(-1867.32 -594.221)" fill="#feb696" style="fill: rgb(218, 128, 106);"/>
    <path id="Path_14046" data-name="Path 14046" d="M2028.762,471.448a3.347,3.347,0,0,1,1.072,4.559s-2.124,6.219-2.034,9.394c-1.372.99-2.2.4-2.2.4S2021.789,475.847,2028.762,471.448Z" transform="translate(-1978.986 -464.703)" fill="#462921"/>
    <path id="Path_14047" data-name="Path 14047" d="M2035.307,510.967a4.839,4.839,0,0,1-4.284-.67c-.079.06,1.166,1.731,4.036,1.481C2035.068,511.753,2035.307,510.967,2035.307,510.967Z" transform="translate(-1984.778 -498.678)" fill="#663e28"/>
    <path id="Path_14048" data-name="Path 14048" d="M1867.657,468.179c1.106.815,5.611,3.55,3.8,11.922,0,0-.268-3.192-2.606-4.469-.76-.306-.517-.821-3.686-.706,8.148-2.062,2.147-6.925,2.147-6.925Z" transform="translate(-1800.547 -461.688)" fill="#462921"/>
    <path id="Path_14049" data-name="Path 14049" d="M1894.511,579.308c0,1.142.843,1.439,1.985,1.439s2.152-.3,2.152-1.439a2.069,2.069,0,1,0-4.138,0Z" transform="translate(-1830.996 -557.223)" fill="#fff"/>
    <path id="Path_14050" data-name="Path 14050" d="M1896.58,577.239a2.069,2.069,0,0,1,2.069,2.069c-.219.005-.613-1.42-2.069-1.479s-1.752,1.454-2.069,1.479A2.069,2.069,0,0,1,1896.58,577.239Z" transform="translate(-1830.996 -557.223)" fill="#3d1108"/>
    <path id="Path_14051" data-name="Path 14051" d="M1906.564,583.516a1.109,1.109,0,0,1,1.056,1.112.468.468,0,1,0-.18.9.489.489,0,0,0,.092-.009.981.981,0,0,1-.968.65c-.592,0-1.072-.39-1.072-1.272S1905.972,583.516,1906.564,583.516Z" transform="translate(-1841.345 -562.713)" fill="#371a15"/>
    <path id="Path_14052" data-name="Path 14052" d="M1903.622,452.382q.412-.371.867-.709c10.668,5.13,14.208,1.921,14.232,1.9h0C1914.995,459.683,1907.013,454.242,1903.622,452.382Z" transform="translate(-1852.212 -447.408)" fill="#673f2a"/>
    <path id="Path_14053" data-name="Path 14053" d="M1906.564,583.516a1.109,1.109,0,0,1,1.056,1.112.467.467,0,0,0-.18-.036.462.462,0,0,0-.217.056,1.3,1.3,0,0,0-.659-.165.98.98,0,0,0-1.053.695,2.043,2.043,0,0,1-.019-.282C1905.492,584.012,1905.972,583.516,1906.564,583.516Z" transform="translate(-1841.345 -562.713)" fill="#26120b"/>
    <path id="Path_14054" data-name="Path 14054" d="M1990.146,580.044c0,1.142-.843,1.44-1.985,1.44s-2.152-.3-2.152-1.44a2.069,2.069,0,1,1,4.137,0Z" transform="translate(-1933.971 -557.867)" fill="#fff"/>
    <path id="Path_14055" data-name="Path 14055" d="M1988.077,577.975a2.069,2.069,0,0,0-2.069,2.069c.218.005.614-1.42,2.069-1.479s1.752,1.454,2.069,1.479A2.069,2.069,0,0,0,1988.077,577.975Z" transform="translate(-1933.971 -557.867)" fill="#3d1108"/>
    <path id="Path_14056" data-name="Path 14056" d="M1994.65,584.252a1.109,1.109,0,0,1,1.055,1.112.468.468,0,1,0-.18.9.484.484,0,0,0,.092-.009.98.98,0,0,1-.968.65c-.593,0-1.073-.39-1.073-1.273S1994.058,584.252,1994.65,584.252Z" transform="translate(-1940.48 -563.357)" fill="#371a15"/>
    <path id="Path_14057" data-name="Path 14057" d="M1994.65,584.252a1.109,1.109,0,0,1,1.055,1.112.467.467,0,0,0-.18-.036.461.461,0,0,0-.217.055,1.3,1.3,0,0,0-.659-.164.981.981,0,0,0-1.054.695,2.169,2.169,0,0,1-.019-.282C1993.578,584.748,1994.058,584.252,1994.65,584.252Z" transform="translate(-1940.48 -563.357)" fill="#26120b"/>
    <path id="Path_14058" data-name="Path 14058" d="M2050.754,566.278s-1.359.348-1.359,1.463v1.115l1.625-.561Z" transform="translate(-2002.796 -547.637)" fill="#646567"/>
    <path id="Path_14059" data-name="Path 14059" d="M1867.381,563.975c.709.142,1.259.232,1.7.285.439-.053.989-.143,1.7-.285,3.716-.743,10.51,0,10.51,0s-.053,1.964-.266,2.017-.69.106-1.009,1.592c-.8,1.486-.531,3.132-4.883,3.275s-4.565-1.842-5.2-3.911a.884.884,0,0,0-1.7,0c-.637,2.07-.849,4.055-5.2,3.911s-4.087-1.788-4.883-3.275c-.319-1.486-.8-1.539-1.009-1.592s-.266-2.017-.266-2.017S1863.665,563.232,1867.381,563.975Zm3.722,4.784c.956,1.911,3.875,1.486,6,1.274s2.23-3.131,2.123-4.618-3.822-1.062-6.157-1.115a2.294,2.294,0,0,0-2.6,1.757S1870.148,566.849,1871.1,568.76Zm-10.214,1.274c2.123.212,5.042.637,6-1.274s.637-2.7.637-2.7a2.294,2.294,0,0,0-2.6-1.757c-2.335.053-6.051-.372-6.157,1.115S1858.765,569.821,1860.889,570.033Z" transform="translate(-1808.913 -545.334)" fill="#252f3e"/>
    <path id="Path_14060" data-name="Path 14060" d="M1885.642,568.75l1.677,5.815.738-.075c2.123-.212,2.23-3.132,2.123-4.618-.061-.856-1.32-1.078-2.823-1.122Zm-.595.007,1.741,5.856-.526.04-1.73-5.892Zm-11.541-.018,1.741,5.9-.526.04-1.73-5.934Zm2.386.01a2.294,2.294,0,0,1,2.6,1.757s.318.79-.637,2.7a2.679,2.679,0,0,1-2.091,1.369l-1.646-5.838C1874.743,568.748,1875.354,568.761,1875.892,568.749Z" transform="translate(-1819.856 -549.79)" fill="#fff" opacity="0.5"/>
    <path id="Path_14061" data-name="Path 14061" d="M1926.892,672.14a4.438,4.438,0,0,1-5.367-.928S1926.14,670.357,1926.892,672.14Z" transform="translate(-1862.628 -639.229)" fill="#c8322c"/>
    <path id="Path_14062" data-name="Path 14062" d="M1842.612,436.573s-.422.344-.7-.735-3.1-15.48,9.429-17.826,15.292,8.35,15.292,8.35,5.536,4.5,4.081,7.74a2.5,2.5,0,0,1-2.861,1.267s-3.41-7.975-11.65-3.847c0,0-2.7,3.987-4.112,4.55s-6.825.07-7.764.07A2.679,2.679,0,0,0,1842.612,436.573Z" transform="translate(-1796.645 -417.676)" fill="#4393da"/>
    <path id="Path_14063" data-name="Path 14063" d="M1868.8,486.677a2.5,2.5,0,0,1-2.861,1.267s-3.41-7.975-11.65-3.847c0,0-2.7,3.987-4.112,4.55s-6.825.07-7.764.07a3.845,3.845,0,0,0-.966.091h0c9.94-15.976,23.272-9.872,23.272-9.872S1870.251,483.44,1868.8,486.677Z" transform="translate(-1794.731 -470.251)" fill="#1e93e0"/>
    <path id="Path_14064" data-name="Path 14064" d="M1857.9,508.109l-.581.8a2.792,2.792,0,0,1-2.28.47s-3.411-7.975-11.65-3.847C1852.344,496.975,1857.9,508.109,1857.9,508.109Z" transform="translate(-1783.831 -491.682)" fill="#4393da"/>
  </g><path id="Path_14065" data-name="Path 14065" d="M1041.481,524.114a1.811,1.811,0,0,1,1.758,1.382h19.51v-46.95l19.625-9.975-.947-67.6a1.816,1.816,0,1,1,.915,0l.951,68.312-19.781,9.995v46.981h-20.252a1.811,1.811,0,1,1-1.779-2.145Z" transform="translate(-880.81 -363.999)" fill="#4393da"/><path id="Path_14066" data-name="Path 14066" d="M967.436,329.5h0a4.273,4.273,0,1,1,7.693,0h0l-3.847,7.441Zm3.847-4.377a2.515,2.515,0,1,0,2.515,2.515A2.515,2.515,0,0,0,971.283,325.124Z" transform="translate(-763.551 -299.254)" fill="#4393da"/></g></svg>